<svg version="1" xmlns="http://www.w3.org/2000/svg" width="2609.333" height="2609.333" viewBox="0 0 1957.000000 1957.000000"><path d="M513.9 184.4c-.2.2-6.4.7-13.7 1-7.4.4-13.9.9-14.5 1.1-.7.2-4.1.6-7.7 1-17.4 1.6-50.6 7.6-72 13-16.8 4.3-50.4 14.9-58.5 18.5-1.1.5-6.5 2.7-12 4.9-27.3 10.8-58.8 27.1-86.5 44.7-10.5 6.7-25.6 17.1-29.5 20.2-.5.4-4.8 3.6-9.4 7.1-8.3 6.3-24.6 19.9-33.1 27.6-6.1 5.4-32.5 32-37.5 37.5-13.9 15.6-28.3 33.3-37.3 46-5.5 7.8-21.2 31.1-21.2 31.5 0 .3-1.5 2.9-3.4 5.8-9.1 14.1-23.1 41.1-32.8 63.2-7.8 17.7-19.4 49.4-23.2 63.8-4.7 17.3-7.9 29.5-8.3 31.7-.2 1.4-.8 4.4-1.4 6.8-.5 2.3-1.2 5.9-1.5 8-.3 2-.8 4-.9 4.3-.4.6-3.3 18.3-4.1 24.5-.3 2.3-.6 5-.8 6-.4 1.8-1 7.1-2 16.4-2.7 23.5-2.7 95.6-.1 106 .2.8.7 5.1 1 9.5.4 4.4.8 8.2 1 8.5.2.3.6 3.3 1 6.5.8 7 1.4 11.4 2 13.5.2.8.6 3.1.9 5 .3 1.9.8 4.6 1.1 6 .2 1.4.7 3.8 1 5.5C16.8 861.8 28.9 900.8 43 934c10.8 25.4 33.9 68.6 43.6 81.7 1.3 1.7 2.4 3.4 2.4 3.7 0 .5 9.4 14.2 11.7 17.1.4.6 4.8 6.4 9.8 13 10.1 13.5 9.4 12.7 23.7 29 62.2 71 143.4 125 233.3 155.3 24.8 8.3 56 16.1 81 20.2 13.5 2.2 14.3 2.4 23.5 3.5 3 .3 6.6.8 8 1 1.4.2 6.3.7 11 1 4.7.4 10.1.9 12 1.1 5 .5 64.5.5 70.5-.1 11.4-1 18.1-1.7 20.5-2 1.4-.2 4.8-.7 7.5-1 6.8-.8 19.3-2.7 25.5-4 1.4-.2 3.6-.7 5-.9 26.7-4.8 71.3-18 99.5-29.6 43.3-17.8 79.6-36.5 120.7-62.1 8.1-5 33.3-21.6 35.3-23.2.6-.4 7.8-5.6 16.1-11.6 21.9-15.6 62.5-47.2 71.9-55.8 1.1-1 4.1-3.5 6.7-5.6 2.6-2.1 5.3-4.3 6-5 .7-.7 4.5-3.9 8.3-7.2 3.9-3.3 7.2-6.2 7.5-6.5.3-.3 4.1-3.7 8.4-7.5 4.4-3.9 8.7-7.7 9.6-8.5.9-.8 4.3-3.9 7.6-6.9 31.5-28.8 82.2-78.5 113.6-111.2 18.2-19.1 38.3-40.2 43.7-46l6.2-6.7 23.3 23.2c12.9 12.7 29.4 28.7 36.7 35.6 7.3 6.9 14 13.2 14.9 14 .8.8 7.6 6.9 15 13.5s13.7 12.2 14 12.5c.3.3 4.6 3.9 9.5 8 69.3 58 125.3 92.4 183.1 112.3 11.2 3.9 27.5 8.4 36.4 10.2 23.9 4.8 35.4 5.9 61 5.9 20.5.1 35.6-.9 48.9-3 1.9-.3 5.3-.8 7.5-1 2.3-.3 6-.9 8.4-1.5 2.3-.5 5.9-1.2 8-1.5 3.1-.5 9.5-2.1 31.2-7.8.8-.2 7.1-2.3 14-4.6 23.5-7.9 48-19.3 70-32.3 7.8-4.6 28.8-18.5 30-19.7.3-.3 3.4-2.8 6.9-5.5 18.1-13.8 37.3-31.9 55.1-52 18.9-21.4 40.3-54.3 54-82.9 10.8-22.7 23-57.6 26.6-76.1.3-1.5 1.9-9 2.9-13.5 0-.3.4-2.6.8-5.1.4-2.5 1-5.7 1.2-7 .9-5.2 2.5-18.8 3.2-26.4 1.5-16.4.8-63-1.1-74.5-.3-1.4-.7-5.1-1.1-8.3-.3-3.1-1.3-9.2-2.1-13.4-.8-4.2-1.7-9-2-10.7-3-17.5-12.4-47.3-22.1-70.6-21.1-50.4-59.5-102.6-100.8-137-4.9-4.1-9.2-7.7-9.5-8-1-1.1-19.6-14.8-25.5-18.7-10.2-6.8-25.7-15.8-37.6-21.8-6.3-3.2-12.5-6.3-13.9-7-17.6-9-59.4-22.3-84.5-27-12.6-2.4-15.5-2.8-27-4.1-2.7-.3-6.6-.8-8.5-1.1-6.1-1-57.2-1.2-63.5-.2-3.3.4-8.9 1.3-12.5 1.9-3.6.5-8.3 1.3-10.5 1.6-2.2.3-4.3.8-4.6 1-.3.2-2.1.6-4 .9-20.7 3.7-55.2 16.1-82.9 29.9-49.4 24.6-94.9 56.6-152.5 107-9.3 8.3-17.5 15.5-18.1 16-.6.6-7.4 6.9-15 14.1-10.2 9.6-50.9 49.3-62.7 61.1-.4.5-2.7-1.3-5-3.8-31.8-35.1-108.2-112.1-145.8-147-5.5-5.1-21.9-20.1-23.9-21.8-10.2-8.9-14.5-12.8-15.9-14.1-8.9-8.7-58.1-48.7-80.6-65.5-36.1-27-76-53.2-107-70.4-3.3-1.8-7.6-4.2-9.5-5.3-18.3-10.3-75.3-36.7-79.4-36.7-.6 0-1.6-.4-2.2-.9-.5-.5-7.4-3.1-15.4-5.9-37-12.7-69.1-20.6-104.5-25.6-2.2-.4-5.1-.8-6.5-1.1-1.4-.2-5.6-.7-9.5-1.1-3.8-.3-9-.8-11.5-1-5.4-.6-62.6-1.4-63.1-1zM563 386c20.4 2.7 38.5 7.3 62.9 16 30.7 10.8 57.6 23.8 103.1 49.8 16.2 9.2 61.2 38.7 81.4 53.3 15.8 11.4 26.7 19.4 27.9 20.4.7.5 3.9 3 7.2 5.5 3.3 2.5 6.2 4.7 6.5 5 .3.3 3.2 2.5 6.5 5 3.3 2.4 6.9 5.2 8 6.1 1.1.9 11.5 9.2 23 18.5 11.6 9.2 21.2 17 21.5 17.4.3.3 6.4 5.5 13.5 11.5 7.2 6 13.2 11.1 13.5 11.5.3.3 7.1 6.3 15.1 13.2 8.1 7 15.3 13.3 16.1 14 .7.7 5.6 5.1 10.8 9.8 5.2 4.7 12 10.8 15 13.7 3 2.8 6.6 6.1 8 7.3 4.4 3.8 32 30.2 46.7 44.6l14.3 14.1-15.7 15.6c-20.4 20.1-40.8 39.5-56.2 53.3-3 2.7-6.6 6-8 7.4-1.4 1.4-8.4 7.7-15.6 14-7.1 6.3-13.5 11.9-14.1 12.5-1.9 1.7-6.5 5.7-18.4 15.9l-14 12c-25.7 22.1-82.8 66.8-107.5 84.1-3.8 2.7-7.2 5.2-7.5 5.5-.9 1-7.5 5.4-29 19.7-11.8 7.9-22.4 14.9-23.5 15.6-6.3 4.2-38.8 23.4-49 28.9-23.4 12.8-37.7 19.6-64 30.8-16 6.7-51.4 17.5-64 19.4-2.2.4-6.5 1.1-9.5 1.6s-7.7 1.2-10.5 1.4c-5.5.6-37.6.7-41.5.2-1.4-.2-6.1-.7-10.5-1-4.4-.4-10.9-1.2-14.5-1.7-3.6-.6-7.4-1.2-8.5-1.4-7.5-1.2-11.4-2-22.5-4.6-6.9-1.7-14.7-3.8-17.5-4.6-16.1-5-25.3-8.3-37.5-13.6-4.7-2-27.4-13.2-30-14.7-.8-.5-5.8-3.5-11-6.6-34.7-20.6-71.4-53.7-94.9-85.5-2.2-3-4.4-5.9-4.9-6.4-2.2-2.6-12.2-18-17.5-27-16-27.1-31-64.6-37.3-93.4-3.5-16.1-4.7-22.3-6-33.1-.3-2.5-.7-5.6-.9-7-2.2-12.3-2.2-61.1-.1-74 .2-1.4.7-4.8 1.1-7.5.3-2.8.9-6.6 1.1-8.5.3-1.9.9-5.8 1.5-8.6.5-2.8 1.2-6.4 1.5-8 4.1-22.9 16.7-58.4 30.1-84.9 17.9-35.1 48.3-74.4 76.3-98.5 1.4-1.2 3.9-3.4 5.5-4.8 4.5-4.1 19-15.2 28-21.4 32-22.1 73.6-40.9 109.5-49.4 7.1-1.6 25.3-5.3 28.5-5.8 2.2-.2 5.8-.7 8-1 2.2-.3 5.6-.8 7.5-1.1 1.9-.2 8-.7 13.5-1.1 5.5-.4 10.1-.7 10.2-.9.8-.6 31.2.5 38.3 1.5zm1057.1 152.4c38.2 7.7 69.5 24.3 96.5 51.1 31.4 31 49.9 69 55 112.5.9 8.2 1 29.2.2 39-3 32.6-15.7 65.9-35.7 93-7.4 10.1-6.3 8.8-18.1 20.9-15.1 15.3-28.8 25.4-48.1 35.3-13.4 6.9-34.2 14.4-45.9 16.4-1.4.2-3.6.7-5 .9-5.1 1-6.6 1.3-12.5 2-15.5 1.8-34.4 1.1-48.8-2-7.5-1.5-25.4-8.2-35.7-13.2-34-16.5-69.1-42.3-115.7-85.1-13.7-12.5-61.8-60.3-77.1-76.6l-9.3-9.9 6.3-6.6c18-18.7 72.7-73 82.2-81.7 6-5.4 11.7-10.6 12.6-11.5 1.7-1.6 29.1-24.5 36.1-30.2 7.3-5.8 32.8-23.6 40.9-28.4 10.2-6.1 25.8-14.3 32-16.8 14-5.6 25.6-9.2 33-10.2 1.9-.3 5.1-.9 7-1.3 1.9-.5 11.2-.7 20.5-.5 13.2.3 19.8.9 29.6 2.9zM526.4 1389.1c-11.4 1.1-20.9 8.5-24.5 19.2-1.5 4.4-1.7 10.6-1.7 52.1-.1 25.9-.1 49-.1 51.4l-.1 4.2-3.7-4.1c-7.7-8.5-22.4-17.1-34.8-20.4-10.1-2.6-13.4-3-29.5-2.9-18.8 0-30.7 2.4-44.5 8.9-10.9 5.1-16 8.5-23.2 15.6-14.2 13.8-22.7 34.4-26.7 64.4-2.6 19.5-2.7 86.5-.1 105.5.9 7.1 1.8 12.7 2 14 5.1 25 13.2 41.4 26.4 53.4 1.9 1.7 3.9 3.6 4.5 4.2 2.6 2.5 15.3 9.5 21.5 11.8 15.3 5.8 23.4 7.1 43.6 7 13-.1 17.5-.5 24-2.3 14.6-3.9 24.5-9.5 36.1-20.3l6.4-6v26.2h21.3c23.8 0 28.7-.8 35.3-6.1 4.8-3.8 9.1-9.9 10.4-15.1 1.1-3.9 1.6-359.6.5-360.6-.7-.7-35.7-.8-43.1-.1zm-59 163.6c20.4 5.9 30 23 32.1 56.9 1.4 21.8.5 48.6-2 60.4-.3 1.4-.8 3.8-1 5.3-.8 4.2-4 12.1-6.8 16.9-5 8.5-12.5 14.3-22.3 17.1-5.9 1.7-22.6 2-28.1.5-20.4-5.6-30.6-21.9-33-52.7-1.4-17.1-.7-54 1.2-63.1.3-1.4.8-3.9 1-5.5 2.4-13.7 11-27.6 20-32.3 9.7-5.1 27.9-6.7 38.9-3.5zM615.9 1389.5c-.1.5-.3 86.6-.3 191.2l-.2 190.3h129.8c103.1 0 129.8-.3 129.9-1.3.1-1.5.1-80.9 0-82-.1-.4-37.3-.7-82.9-.7h-82.7v-66.5l70.8-.3 70.7-.2-.2-41.8-.3-41.7-69.1-.1c-38 0-69.7-.3-70.5-.6-1.2-.5-1.4-5.8-1.4-31.9v-31.4h82c45.1 0 82.5-.3 83-.7.8-.5 1.2-64.1.6-81.3-.1-2-.8-2-129.6-2-85.6 0-129.5.3-129.6 1zM930.5 1388.8l-2.1.3V1580l.1 190.9 46.6.1c36.8 0 46.8-.2 47.1-1.2.2-.7.4-32.7.4-71.1-.1-69.1-.1-69.7 1.9-69.8 2.6-.1 26.4-.1 28.8 0 .9.1 1.7.5 1.7 1s3.4 8.1 7.6 16.8c4.2 8.7 9.1 18.9 10.9 22.8 1.8 3.8 6.1 12.8 9.5 20 3.4 7.1 7.7 16.1 9.5 20 3.2 6.8 6.9 14.7 22.1 46.2l7.3 15.3h54c29.8 0 54.1-.3 54.1-.8 0-.4-1.6-3.9-3.6-7.7-5.4-10.5-21-40.7-26.9-52-2.9-5.5-8.2-15.6-11.7-22.5-18.5-35.6-25.3-48.8-32.1-61.9l-7.5-14.4 6.6-4c21.8-13.1 38.1-31.4 47-52.9 10.5-25.2 11.2-55.9 2-83.3-2.9-8.5-8.2-19.8-11.7-25.1-1.7-2.5-3.1-4.8-3.1-5.1 0-1-8.4-10.8-14.6-17-20.5-20.5-53.4-34.2-85-35.3-11-.3-156.4-.6-158.9-.2zm156 85.6c17.9 4.7 29.6 19.3 29.6 36.6 0 7.5-.7 10.5-4 17.5-4.6 9.8-13.5 17.2-24.1 20-6.3 1.6-63.3 2.5-64.8 1-.4-.4-.7-17.7-.7-38.6V1473h29.5c21.4 0 30.9.4 34.5 1.4zM1267.8 1388.8l-2.8.3V1771h94v-91.2c0-51.4.4-90.8.9-90.2.4.5 2.2 3.4 3.8 6.4 6 11 48.5 84.5 49.3 85.4.9.9 59.6 1.4 60.4.5.3-.2 12.4-21.3 27-46.8 14.6-25.5 26.7-46.2 26.7-46 .1.2.2 41.1.3 90.9l.1 90.5h94v-190.3c0-118.8-.3-190.6-.9-191-1.6-.9-90.6-.6-91.5.4-1 1.1-12.6 23.7-67.9 132.4-9.6 19-17.6 34.6-17.7 34.8-.1.1-3.5-6.2-7.5-14-4-7.9-11.9-23.3-17.5-34.3-5.6-11-17.6-34.4-26.5-52-26-51-34.2-67-34.6-67.4-.4-.5-85.6-.7-89.6-.3z"/></svg>