<?xml version="1.0" encoding="utf-8"?>
<!-- Generator: Adobe Illustrator 16.0.0, SVG Export Plug-In . SVG Version: 6.00 Build 0)  -->
<!DOCTYPE svg PUBLIC "-//W3C//DTD SVG 1.1//EN" "http://www.w3.org/Graphics/SVG/1.1/DTD/svg11.dtd">
<svg version="1.1" id="Layer_1" xmlns="http://www.w3.org/2000/svg" xmlns:xlink="http://www.w3.org/1999/xlink" x="0px" y="0px"
	 width="193px" height="40px" viewBox="0 0 193 40" enable-background="new 0 0 193 40" xml:space="preserve">
<g>
	<linearGradient id="SVGID_1_" gradientUnits="userSpaceOnUse" x1="46.793" y1="26.9043" x2="79.9204" y2="26.9043">
		<stop  offset="0.2" style="stop-color:#B14226"/>
		<stop  offset="0.8" style="stop-color:#CF5328"/>
	</linearGradient>
	<path fill="url(#SVGID_1_)" d="M66.111,26.974c-2.778,0-6.048-2.987-9.824-6.972V20h-9.495v0.001
		c6.396,6.793,12.525,13.807,19.318,13.807c7.626,0,13.809-6.182,13.809-13.809h-6.835C73.085,23.853,69.963,26.974,66.111,26.974z"
		/>
	<linearGradient id="SVGID_2_" gradientUnits="userSpaceOnUse" x1="7.3198" y1="10" x2="56.2876" y2="10">
		<stop  offset="0.2" style="stop-color:#CF5328"/>
		<stop  offset="0.8" style="stop-color:#B14226"/>
	</linearGradient>
	<path fill="url(#SVGID_2_)" d="M27.32,7.436C34.561,7.436,46.793,20,46.793,20h9.495C48.714,12.008,39.123,0,27.32,0
		c-11.045,0-20,8.955-20,20h7.436C14.756,13.062,20.381,7.436,27.32,7.436z"/>
	<linearGradient id="SVGID_3_" gradientUnits="userSpaceOnUse" x1="46.793" y1="13.0957" x2="79.9204" y2="13.0957">
		<stop  offset="0.2" style="stop-color:#E66E2A"/>
		<stop  offset="0.8" style="stop-color:#CF5328"/>
	</linearGradient>
	<path fill="url(#SVGID_3_)" d="M56.288,20v-0.002c3.776-3.984,7.046-6.972,9.824-6.972c3.852,0,6.974,3.122,6.974,6.974h6.835
		c0-7.626-6.183-13.809-13.809-13.809c-6.793,0-12.922,7.013-19.318,13.808V20H56.288z"/>
	<linearGradient id="SVGID_4_" gradientUnits="userSpaceOnUse" x1="7.3198" y1="30" x2="56.2876" y2="30">
		<stop  offset="0.2" style="stop-color:#CF5328"/>
		<stop  offset="0.8" style="stop-color:#E66E2A"/>
	</linearGradient>
	<path fill="url(#SVGID_4_)" d="M27.32,40c11.803,0,21.394-12.006,28.968-19.999V20h-9.495c0,0-12.232,12.564-19.473,12.564
		c-6.938,0-12.564-5.625-12.564-12.564H7.32C7.32,31.046,16.274,40,27.32,40z"/>
	<path fill="#676770" d="M115.702,7.384c-1.029,0-1.871,0.843-1.871,1.872v6.453c-1.194-1.333-2.601-1.825-4.462-1.825
		c-1.793,0-3.445,0.633-4.465,1.652c-1.827,1.828-1.863,4.957-1.863,7.699c0,2.742,0.036,5.906,1.863,7.734
		c1.02,1.02,2.707,1.652,4.501,1.652c1.933,0,3.269-0.527,4.534-1.934v1.723h2.592c1.03,0,1.872-0.843,1.872-1.872V7.381
		L115.702,7.384z M110.704,28.509c-2.741,0-3.093-2.285-3.093-5.273c0-2.988,0.352-5.238,3.093-5.238c2.743,0,3.13,2.25,3.13,5.238
		C113.834,26.224,113.447,28.509,110.704,28.509z M121.374,32.411V7.381h17.015v5.484h-10.862v4.183h9.281v5.485h-9.281v4.395
		h10.862v5.483H121.374z M154.524,32.411l-4.43-9.315h-2.074v9.315h-6.152V7.381h9.914c5.555,0,8.542,3.937,8.542,8.05
		c0,3.41-2.109,5.555-4.077,6.54l5.414,10.44H154.524z M151.501,12.899h-3.48v5.063h3.48c1.687,0,2.671-1.23,2.671-2.531
		S153.188,12.899,151.501,12.899z M181.101,32.411V20.423l-3.551,6.187h-3.938l-3.551-6.187v11.988h-6.151V7.381h6.046l5.625,11.038
		l5.625-11.038h6.047v25.03H181.101z"/>
</g>
</svg>
